<?xml version="1.0" encoding="UTF-8" standalone="no"?>
<svg
   xmlns:dc="http://purl.org/dc/elements/1.1/"
   xmlns:cc="http://creativecommons.org/ns#"
   xmlns:rdf="http://www.w3.org/1999/02/22-rdf-syntax-ns#"
   xmlns:svg="http://www.w3.org/2000/svg"
   xmlns="http://www.w3.org/2000/svg"
   xmlns:sodipodi="http://sodipodi.sourceforge.net/DTD/sodipodi-0.dtd"
   xmlns:inkscape="http://www.inkscape.org/namespaces/inkscape"
   version="1.0"
   width="975.000000pt"
   height="1280.000000pt"
   viewBox="0 0 975.000000 1280.000000"
   preserveAspectRatio="xMidYMid meet"
   id="svg16"
   sodipodi:docname="151542.svg"
   inkscape:version="1.0.1 (c497b03c, 2020-09-10)">
  <defs
     id="defs20" />
  <sodipodi:namedview
     pagecolor="#ffffff"
     bordercolor="#666666"
     borderopacity="1"
     objecttolerance="10"
     gridtolerance="10"
     guidetolerance="10"
     inkscape:pageopacity="0"
     inkscape:pageshadow="2"
     inkscape:window-width="1440"
     inkscape:window-height="900"
     id="namedview18"
     showgrid="false"
     inkscape:zoom="0.39199219"
     inkscape:cx="593.87643"
     inkscape:cy="848.23119"
     inkscape:window-x="0"
     inkscape:window-y="0"
     inkscape:window-maximized="0"
     inkscape:current-layer="svg16" />
  <metadata
     id="metadata10">
Created by potrace 1.15, written by Peter Selinger 2001-2017
<rdf:RDF>
  <cc:Work
     rdf:about="">
    <dc:format>image/svg+xml</dc:format>
    <dc:type
       rdf:resource="http://purl.org/dc/dcmitype/StillImage" />
  </cc:Work>
</rdf:RDF>
</metadata>
  <g
     transform="translate(0.000000,1280.000000) scale(0.100000,-0.100000)"
     fill="#000000"
     stroke="none"
     id="g14">
    <path
       d="M4800 12794 c-495 -61 -863 -193 -1166 -417 -111 -82 -281 -260 -360 -377 -192 -283 -277 -549 -299 -930 -17 -298 50 -661 177 -958 22 -52 37 -97 32 -101 -5 -4 -45 -32 -89 -61 -614 -408 -1036 -1019 -1184 -1711 -68 -320 -69 -730 -1 -1065 81 -406 285 -852 547 -1198 25 -32 41 -62 36 -65 -4 -4 -75 -55 -158 -114 -842 -600 -1556 -1474 -1953 -2392 -426 -984 -495 -1978 -202 -2898 37 -118 163 -453 173 -464 16 -15 385 -24 1407 -33 2218 -19 7110 -7 7500 18 l105 7 19 40 c192 403 297 769 348 1210 16 140 16 583 -1 735 -7 63 -21 171 -32 239 -213 1352 -1142 2749 -2391 3595 l-88 60 17 25 c92 140 245 433 326 622 206 483 308 1019 278 1463 -24 351 -94 621 -235 911 -195 397 -484 717 -895 987 -73 48 -142 90 -152 93 -26 8 -24 21 12 100 224 494 267 960 128 1380 -39 119 -147 339 -219 450 -299 456 -763 747 -1325 830 -109 16 -298 26 -355 19z"
       id="path12" />
  </g>
  <path
     sodipodi:type="spiral"
     style="fill:none;fill-rule:evenodd;stroke:#000000;stroke-width:0.75"
     id="path22"
     sodipodi:cx="44.005981"
     sodipodi:cy="237.24962"
     sodipodi:expansion="1"
     sodipodi:revolution="3"
     sodipodi:radius="35.743458"
     sodipodi:argument="-20.149405"
     sodipodi:t0="0"
     d="m 44.005981,237.24962 c 0.479652,-1.72674 2.564254,-0.20535 2.869955,0.79721 0.828431,2.71689 -2.044198,4.85257 -4.464379,4.9427 -4.329137,0.16121 -7.264132,-4.11532 -7.015439,-8.13155 0.364967,-5.89397 6.205991,-9.72352 11.798713,-9.08818 7.454218,0.84681 12.201873,8.30248 11.160923,15.46588 -1.309931,9.0144 -10.401479,14.68975 -19.133046,13.23367 C 28.64761,252.70584 22.039631,241.96752 23.9163,231.66913 c 2.21159,-12.13629 14.60301,-19.67982 26.46738,-17.37915 13.697883,2.65622 22.178857,16.70475 19.451891,30.13455 -3.098551,15.25978 -18.806887,24.67949 -33.801712,21.52463 -16.821928,-3.53927 -27.1812787,-20.90931 -23.597376,-37.46888 3.97881,-18.38425 23.011958,-29.68394 41.136046,-25.67011" />
  <path
     sodipodi:type="spiral"
     style="fill:none;fill-rule:evenodd;stroke:#000000;stroke-width:0.75"
     id="path24"
     sodipodi:cx="154.97757"
     sodipodi:cy="206.63676"
     sodipodi:expansion="1"
     sodipodi:revolution="3"
     sodipodi:radius="29.764017"
     sodipodi:argument="-19.634954"
     sodipodi:t0="0"
     d="m 154.97757,206.63676 c 1.05523,-1.05523 1.94304,0.90182 1.75386,1.75387 -0.51266,2.30899 -3.4702,2.68017 -5.26158,1.75386 -3.20437,-1.65696 -3.57977,-5.95973 -1.75387,-8.76931 2.67958,-4.12317 8.48303,-4.50601 12.27703,-1.75386 5.05681,3.66817 5.44362,11.01832 1.75387,15.78475 -4.64318,5.99807 -13.55933,6.38711 -19.29248,1.75387 -6.94361,-5.61147 -7.33399,-16.10355 -1.75387,-22.8002 6.57599,-7.89177 18.64978,-8.28302 26.30793,-1.75387 8.84162,7.53816 9.23347,21.19735 1.75387,29.81564 -8.49879,9.79266 -23.74586,10.18492 -33.32337,1.75388 -10.74452,-9.45836 -11.13709,-26.29506 -1.75387,-36.8311 10.41714,-11.69699 28.84476,-12.08979 40.33881,-1.75387" />
  <path
     sodipodi:type="spiral"
     style="fill:none;fill-rule:evenodd;stroke:#000000;stroke-width:0.75"
     id="path24-6"
     sodipodi:cx="36.904541"
     sodipodi:cy="421.47949"
     sodipodi:expansion="1"
     sodipodi:revolution="3"
     sodipodi:radius="29.764017"
     sodipodi:argument="-19.634954"
     sodipodi:t0="0"
     d="m 36.904541,421.47949 c 1.05523,-1.05523 1.943042,0.90182 1.753862,1.75386 -0.512667,2.30899 -3.470197,2.68018 -5.261584,1.75387 -3.204371,-1.65696 -3.579763,-5.95973 -1.753865,-8.76931 2.679581,-4.12317 8.483031,-4.50601 12.277031,-1.75387 5.056805,3.66818 5.443621,11.01832 1.753867,15.78476 -4.643179,5.99806 -13.559327,6.3871 -19.292476,1.75387 -6.943613,-5.61148 -7.333995,-16.10356 -1.75387,-22.8002 6.575984,-7.89177 18.64978,-8.28302 26.307922,-1.75388 8.841628,7.53816 9.233469,21.19735 1.753873,29.81565 -8.498794,9.79266 -23.74586,10.18492 -33.323369,1.75387 C 8.6214147,429.55976 8.2288457,412.72306 17.612057,402.18702 28.0292,390.49003 46.456825,390.09722 57.950872,400.43315" />
  <path
     sodipodi:type="spiral"
     style="fill:none;fill-rule:evenodd;stroke:#000000;stroke-width:0.75"
     id="path24-7"
     sodipodi:cx="67.517395"
     sodipodi:cy="605.15662"
     sodipodi:expansion="1"
     sodipodi:revolution="3"
     sodipodi:radius="29.764017"
     sodipodi:argument="-19.634954"
     sodipodi:t0="0"
     d="m 67.517395,605.15662 c 1.05523,-1.05523 1.943042,0.90181 1.753862,1.75386 -0.512667,2.30899 -3.470197,2.68018 -5.261584,1.75386 -3.204371,-1.65696 -3.579763,-5.95973 -1.753864,-8.76931 2.67958,-4.12317 8.48303,-4.50601 12.27703,-1.75386 5.056805,3.66818 5.443621,11.01832 1.753867,15.78475 -4.643179,5.99807 -13.559327,6.38711 -19.292476,1.75387 -6.943613,-5.61147 -7.333995,-16.10355 -1.75387,-22.8002 6.575984,-7.89177 18.64978,-8.28302 26.307922,-1.75387 8.841628,7.53816 9.233469,21.19735 1.753873,29.81564 -8.498794,9.79266 -23.74586,10.18492 -33.323369,1.75388 -10.744517,-9.45836 -11.137086,-26.29506 -1.753875,-36.83109 10.417143,-11.697 28.844768,-12.0898 40.338815,-1.75388" />
  <path
     sodipodi:type="spiral"
     style="fill:none;fill-rule:evenodd;stroke:#000000;stroke-width:0.75"
     id="path24-8"
     sodipodi:cx="193.79543"
     sodipodi:cy="289.46155"
     sodipodi:expansion="1"
     sodipodi:revolution="3"
     sodipodi:radius="29.764017"
     sodipodi:argument="-19.634954"
     sodipodi:t0="0"
     d="m 193.79543,289.46155 c 1.05522,-1.05523 1.94304,0.90181 1.75386,1.75386 -0.51267,2.30899 -3.4702,2.68018 -5.26159,1.75386 -3.20437,-1.65696 -3.57976,-5.95972 -1.75386,-8.7693 2.67958,-4.12318 8.48303,-4.50602 12.27703,-1.75387 5.0568,3.66818 5.44362,11.01832 1.75387,15.78475 -4.64318,5.99807 -13.55933,6.38711 -19.29248,1.75387 -6.94361,-5.61147 -7.33399,-16.10355 -1.75387,-22.8002 6.57598,-7.89177 18.64978,-8.28302 26.30792,-1.75387 8.84163,7.53816 9.23347,21.19735 1.75387,29.81565 -8.49879,9.79265 -23.74585,10.18491 -33.32336,1.75387 -10.74452,-9.45836 -11.13709,-26.29506 -1.75388,-36.83109 10.41714,-11.697 28.84477,-12.0898 40.33882,-1.75388" />
  <path
     sodipodi:type="spiral"
     style="fill:none;fill-rule:evenodd;stroke:#000000;stroke-width:0.75"
     id="path24-5"
     sodipodi:cx="207.18855"
     sodipodi:cy="78.998177"
     sodipodi:expansion="1"
     sodipodi:revolution="3"
     sodipodi:radius="29.764017"
     sodipodi:argument="-19.634954"
     sodipodi:t0="0"
     d="m 207.18855,78.998177 c 1.05523,-1.055231 1.94305,0.901814 1.75387,1.75386 -0.51267,2.308992 -3.4702,2.680178 -5.26159,1.753864 -3.20437,-1.656959 -3.57976,-5.959727 -1.75386,-8.769307 2.67958,-4.123171 8.48303,-4.506012 12.27703,-1.753866 5.0568,3.668178 5.44362,11.018321 1.75386,15.784753 -4.64317,5.998068 -13.55932,6.387106 -19.29247,1.753869 -6.94361,-5.611472 -7.334,-16.103551 -1.75387,-22.8002 6.57598,-7.891769 18.64978,-8.283019 26.30792,-1.753871 8.84163,7.53816 9.23347,21.19735 1.75387,29.815646 -8.49879,9.792655 -23.74586,10.184915 -33.32337,1.753873 -10.74451,-9.458355 -11.13708,-26.295055 -1.75387,-36.831091 10.41714,-11.696997 28.84477,-12.089799 40.33881,-1.753876" />
  <path
     sodipodi:type="spiral"
     style="fill:none;fill-rule:evenodd;stroke:#000000;stroke-width:0.75"
     id="path24-67"
     sodipodi:cx="42.644451"
     sodipodi:cy="90.478004"
     sodipodi:expansion="1"
     sodipodi:revolution="3"
     sodipodi:radius="29.764017"
     sodipodi:argument="-19.634954"
     sodipodi:t0="0"
     d="m 42.644451,90.478004 c 1.05523,-1.05523 1.943043,0.901815 1.753862,1.753861 -0.512666,2.308992 -3.470197,2.680178 -5.261584,1.753864 -3.20437,-1.65696 -3.579763,-5.959727 -1.753864,-8.769307 2.67958,-4.123172 8.48303,-4.506012 12.27703,-1.753866 5.056805,3.668178 5.443621,11.018321 1.753867,15.784753 -4.643178,5.998071 -13.559327,6.387111 -19.292476,1.753871 -6.943612,-5.611474 -7.333995,-16.103553 -1.75387,-22.800202 6.575984,-7.891769 18.64978,-8.283019 26.307922,-1.753871 8.841628,7.53816 9.233469,21.19735 1.753873,29.815643 -8.498794,9.79266 -23.74586,10.18492 -33.323369,1.75388 C 14.361325,98.558271 13.968756,81.72157 23.351967,71.185535 33.76911,59.488538 52.196736,59.095736 63.690782,69.431658" />
  <path
     sodipodi:type="spiral"
     style="fill:none;fill-rule:evenodd;stroke:#000000;stroke-width:0.75"
     id="path24-57"
     sodipodi:cx="903.63098"
     sodipodi:cy="452.09235"
     sodipodi:expansion="1"
     sodipodi:revolution="3"
     sodipodi:radius="29.764017"
     sodipodi:argument="-19.634954"
     sodipodi:t0="0"
     d="m 903.63098,452.09235 c 1.05523,-1.05523 1.94304,0.90181 1.75386,1.75386 -0.51266,2.30899 -3.47019,2.68018 -5.26158,1.75386 -3.20437,-1.65696 -3.57976,-5.95973 -1.75387,-8.76931 2.67958,-4.12317 8.48303,-4.50601 12.27703,-1.75386 5.05681,3.66818 5.44363,11.01832 1.75387,15.78475 -4.64318,5.99807 -13.55932,6.38711 -19.29247,1.75387 -6.94362,-5.61147 -7.334,-16.10355 -1.75387,-22.8002 6.57598,-7.89177 18.64978,-8.28302 26.30792,-1.75387 8.84163,7.53816 9.23347,21.19735 1.75387,29.81564 -8.49879,9.79266 -23.74586,10.18492 -33.32337,1.75388 -10.74451,-9.45836 -11.13708,-26.29506 -1.75387,-36.83109 10.41714,-11.697 28.84477,-12.0898 40.33881,-1.75388" />
  <path
     sodipodi:type="spiral"
     style="fill:none;fill-rule:evenodd;stroke:#000000;stroke-width:0.75"
     id="path24-2"
     sodipodi:cx="850.05853"
     sodipodi:cy="652.9892"
     sodipodi:expansion="1"
     sodipodi:revolution="3"
     sodipodi:radius="29.764017"
     sodipodi:argument="-19.634954"
     sodipodi:t0="0"
     d="m 850.05853,652.9892 c 1.05523,-1.05523 1.94305,0.90181 1.75386,1.75386 -0.51266,2.30899 -3.47019,2.68018 -5.26158,1.75386 -3.20437,-1.65696 -3.57976,-5.95973 -1.75386,-8.76931 2.67958,-4.12317 8.48303,-4.50601 12.27703,-1.75386 5.0568,3.66818 5.44362,11.01832 1.75386,15.78475 -4.64317,5.99807 -13.55932,6.38711 -19.29247,1.75387 -6.94361,-5.61147 -7.334,-16.10355 -1.75387,-22.8002 6.57598,-7.89177 18.64978,-8.28302 26.30792,-1.75387 8.84163,7.53816 9.23347,21.19735 1.75387,29.81564 -8.49879,9.79266 -23.74586,10.18492 -33.32337,1.75388 -10.74451,-9.45836 -11.13708,-26.29506 -1.75387,-36.83109 10.41714,-11.697 28.84477,-12.0898 40.33881,-1.75388" />
  <path
     sodipodi:type="spiral"
     style="fill:none;fill-rule:evenodd;stroke:#000000;stroke-width:0.75"
     id="path24-70"
     sodipodi:cx="899.80438"
     sodipodi:cy="543.93091"
     sodipodi:expansion="1"
     sodipodi:revolution="3"
     sodipodi:radius="29.764017"
     sodipodi:argument="-19.634954"
     sodipodi:t0="0"
     d="m 899.80438,543.93091 c 1.05523,-1.05523 1.94304,0.90181 1.75386,1.75386 -0.51266,2.30899 -3.47019,2.68018 -5.26158,1.75386 -3.20437,-1.65696 -3.57976,-5.95972 -1.75386,-8.7693 2.67958,-4.12318 8.48303,-4.50602 12.27703,-1.75387 5.0568,3.66818 5.44362,11.01832 1.75386,15.78475 -4.64318,5.99807 -13.55932,6.38711 -19.29247,1.75387 -6.94362,-5.61147 -7.334,-16.10355 -1.75387,-22.8002 6.57598,-7.89177 18.64978,-8.28302 26.30792,-1.75387 8.84163,7.53816 9.23347,21.19735 1.75387,29.81565 -8.49879,9.79265 -23.74586,10.18491 -33.32337,1.75387 -10.74451,-9.45836 -11.13708,-26.29506 -1.75387,-36.83109 10.41714,-11.697 28.84477,-12.0898 40.33881,-1.75388" />
  <path
     sodipodi:type="spiral"
     style="fill:none;fill-rule:evenodd;stroke:#000000;stroke-width:0.75"
     id="path24-9"
     sodipodi:cx="756.30664"
     sodipodi:cy="233.97575"
     sodipodi:expansion="1"
     sodipodi:revolution="3"
     sodipodi:radius="29.764017"
     sodipodi:argument="-19.634954"
     sodipodi:t0="0"
     d="m 756.30664,233.97575 c 1.05523,-1.05523 1.94304,0.90182 1.75386,1.75386 -0.51266,2.309 -3.47019,2.68018 -5.26158,1.75387 -3.20437,-1.65696 -3.57976,-5.95973 -1.75387,-8.76931 2.67958,-4.12317 8.48303,-4.50601 12.27703,-1.75386 5.05681,3.66817 5.44363,11.01832 1.75387,15.78475 -4.64318,5.99807 -13.55933,6.3871 -19.29247,1.75387 -6.94362,-5.61148 -7.334,-16.10355 -1.75387,-22.8002 6.57598,-7.89177 18.64978,-8.28302 26.30792,-1.75387 8.84163,7.53816 9.23347,21.19735 1.75387,29.81564 -8.49879,9.79266 -23.74586,10.18492 -33.32337,1.75388 -10.74452,-9.45836 -11.13708,-26.29506 -1.75387,-36.8311 10.41714,-11.69699 28.84477,-12.08979 40.33881,-1.75387" />
  <path
     sodipodi:type="spiral"
     style="fill:none;fill-rule:evenodd;stroke:#000000;stroke-width:0.75"
     id="path24-1"
     sodipodi:cx="677.86121"
     sodipodi:cy="86.651398"
     sodipodi:expansion="1"
     sodipodi:revolution="3"
     sodipodi:radius="29.764017"
     sodipodi:argument="-19.634954"
     sodipodi:t0="0"
     d="m 677.86121,86.651398 c 1.05523,-1.055231 1.94304,0.901815 1.75386,1.753861 -0.51267,2.308991 -3.4702,2.680178 -5.26159,1.753863 -3.20437,-1.656959 -3.57976,-5.959727 -1.75386,-8.769307 2.67958,-4.123171 8.48303,-4.506012 12.27703,-1.753866 5.0568,3.668178 5.44362,11.018321 1.75387,15.784753 -4.64318,5.998068 -13.55933,6.387108 -19.29248,1.753869 -6.94361,-5.611472 -7.33399,-16.103551 -1.75387,-22.800199 6.57598,-7.891769 18.64978,-8.28302 26.30792,-1.753872 8.84163,7.53816 9.23347,21.19735 1.75388,29.81565 -8.4988,9.79265 -23.74586,10.18491 -33.32337,1.75387 -10.74452,-9.458356 -11.13709,-26.295056 -1.75388,-36.831092 10.41715,-11.696997 28.84477,-12.089799 40.33882,-1.753876" />
  <path
     sodipodi:type="spiral"
     style="fill:none;fill-rule:evenodd;stroke:#000000;stroke-width:0.75"
     id="path24-59"
     sodipodi:cx="905.54431"
     sodipodi:cy="199.5363"
     sodipodi:expansion="1"
     sodipodi:revolution="3"
     sodipodi:radius="29.764017"
     sodipodi:argument="-19.634954"
     sodipodi:t0="0"
     d="m 905.54431,199.5363 c 1.05523,-1.05523 1.94304,0.90182 1.75386,1.75386 -0.51266,2.30899 -3.47019,2.68018 -5.26158,1.75387 -3.20437,-1.65696 -3.57976,-5.95973 -1.75386,-8.76931 2.67958,-4.12317 8.48303,-4.50601 12.27703,-1.75387 5.0568,3.66818 5.44362,11.01832 1.75386,15.78476 -4.64318,5.99806 -13.55932,6.3871 -19.29247,1.75386 -6.94362,-5.61147 -7.334,-16.10355 -1.75387,-22.8002 6.57598,-7.89176 18.64978,-8.28301 26.30792,-1.75387 8.84163,7.53816 9.23347,21.19735 1.75387,29.81565 -8.49879,9.79265 -23.74586,10.18491 -33.32337,1.75387 -10.74451,-9.45835 -11.13708,-26.29505 -1.75387,-36.83109 10.41714,-11.697 28.84477,-12.0898 40.33881,-1.75388" />
  <path
     sodipodi:type="spiral"
     style="fill:none;fill-rule:evenodd;stroke:#000000;stroke-width:0.75"
     id="path24-21"
     sodipodi:cx="838.57867"
     sodipodi:cy="417.65289"
     sodipodi:expansion="1"
     sodipodi:revolution="3"
     sodipodi:radius="29.764017"
     sodipodi:argument="-19.634954"
     sodipodi:t0="0"
     d="m 838.57867,417.65289 c 1.05523,-1.05523 1.94305,0.90182 1.75387,1.75386 -0.51267,2.309 -3.4702,2.68018 -5.26159,1.75387 -3.20437,-1.65696 -3.57976,-5.95973 -1.75386,-8.76931 2.67958,-4.12317 8.48303,-4.50601 12.27703,-1.75387 5.0568,3.66818 5.44362,11.01833 1.75387,15.78476 -4.64318,5.99807 -13.55933,6.3871 -19.29248,1.75387 -6.94361,-5.61148 -7.334,-16.10355 -1.75387,-22.8002 6.57598,-7.89177 18.64978,-8.28302 26.30792,-1.75387 8.84163,7.53816 9.23347,21.19735 1.75387,29.81564 -8.49879,9.79266 -23.74586,10.18492 -33.32336,1.75387 -10.74452,-9.45835 -11.13709,-26.29505 -1.75388,-36.83109 10.41714,-11.69699 28.84477,-12.0898 40.33881,-1.75387" />
  <path
     sodipodi:type="spiral"
     style="fill:none;fill-rule:evenodd;stroke:#000000;stroke-width:0.75"
     id="path24-4"
     sodipodi:cx="819.44568"
     sodipodi:cy="145.96381"
     sodipodi:expansion="1"
     sodipodi:revolution="3"
     sodipodi:radius="29.764017"
     sodipodi:argument="-19.634954"
     sodipodi:t0="0"
     d="m 819.44568,145.96381 c 1.05523,-1.05523 1.94304,0.90181 1.75386,1.75386 -0.51267,2.30899 -3.4702,2.68018 -5.26158,1.75386 -3.20437,-1.65696 -3.57977,-5.95973 -1.75387,-8.76931 2.67958,-4.12317 8.48303,-4.50601 12.27703,-1.75386 5.05681,3.66818 5.44362,11.01832 1.75387,15.78475 -4.64318,5.99807 -13.55933,6.38711 -19.29248,1.75387 -6.94361,-5.61147 -7.33399,-16.10355 -1.75387,-22.8002 6.57599,-7.89177 18.64978,-8.28302 26.30793,-1.75387 8.84162,7.53816 9.23347,21.19735 1.75387,29.81564 -8.49879,9.79266 -23.74586,10.18492 -33.32337,1.75388 -10.74452,-9.45836 -11.13709,-26.29506 -1.75388,-36.83109 10.41715,-11.697 28.84477,-12.0898 40.33882,-1.75388" />
  <path
     sodipodi:type="spiral"
     style="fill:none;fill-rule:evenodd;stroke:#000000;stroke-width:0.75"
     id="path24-74"
     sodipodi:cx="890.23792"
     sodipodi:cy="88.564697"
     sodipodi:expansion="1"
     sodipodi:revolution="3"
     sodipodi:radius="29.764017"
     sodipodi:argument="-19.634954"
     sodipodi:t0="0"
     d="m 890.23792,88.564697 c 1.05522,-1.05523 1.94304,0.901815 1.75386,1.753861 -0.51267,2.308992 -3.4702,2.680178 -5.26159,1.753864 -3.20437,-1.65696 -3.57976,-5.959728 -1.75386,-8.769307 2.67958,-4.123172 8.48303,-4.506012 12.27703,-1.753866 5.0568,3.668177 5.44362,11.018321 1.75387,15.784753 -4.64318,5.998068 -13.55933,6.387108 -19.29248,1.753868 -6.94361,-5.611472 -7.33399,-16.10355 -1.75387,-22.800199 6.57598,-7.891769 18.64978,-8.283019 26.30792,-1.753871 8.84163,7.53816 9.23347,21.19735 1.75387,29.81565 -8.49879,9.79265 -23.74585,10.18491 -33.32336,1.75387 -10.74452,-9.458356 -11.13709,-26.295057 -1.75388,-36.831092 10.41714,-11.696997 28.84477,-12.089799 40.33882,-1.753877" />
  <path
     sodipodi:type="spiral"
     style="fill:none;fill-rule:evenodd;stroke:#000000;stroke-width:0.75"
     id="path24-50"
     sodipodi:cx="117.26329"
     sodipodi:cy="762.04749"
     sodipodi:expansion="1"
     sodipodi:revolution="3"
     sodipodi:radius="29.764017"
     sodipodi:argument="-19.634954"
     sodipodi:t0="0"
     d="m 117.26329,762.04749 c 1.05523,-1.05523 1.94304,0.90181 1.75386,1.75386 -0.51266,2.30899 -3.47019,2.68017 -5.26158,1.75386 -3.20437,-1.65696 -3.57977,-5.95973 -1.75387,-8.76931 2.67958,-4.12317 8.48303,-4.50601 12.27703,-1.75386 5.05681,3.66817 5.44362,11.01832 1.75387,15.78475 -4.64318,5.99807 -13.55933,6.38711 -19.29247,1.75387 -6.943617,-5.61147 -7.334,-16.10355 -1.75387,-22.8002 6.57598,-7.89177 18.64978,-8.28302 26.30792,-1.75387 8.84163,7.53816 9.23347,21.19735 1.75387,29.81564 -8.49879,9.79266 -23.74586,10.18492 -33.323368,1.75388 -10.744518,-9.45836 -11.137087,-26.29506 -1.753875,-36.83109 10.417143,-11.697 28.844763,-12.0898 40.338813,-1.75388" />
  <path
     sodipodi:type="spiral"
     style="fill:none;fill-rule:evenodd;stroke:#000000;stroke-width:0.75"
     id="path24-3"
     sodipodi:cx="23.511417"
     sodipodi:cy="710.38831"
     sodipodi:expansion="1"
     sodipodi:revolution="3"
     sodipodi:radius="29.764017"
     sodipodi:argument="-19.634954"
     sodipodi:t0="0"
     d="m 23.511417,710.38831 c 1.05523,-1.05523 1.943043,0.90181 1.753863,1.75386 -0.512667,2.30899 -3.470198,2.68017 -5.261584,1.75386 -3.204371,-1.65696 -3.579764,-5.95973 -1.753865,-8.76931 2.67958,-4.12317 8.48303,-4.50601 12.27703,-1.75386 5.056805,3.66817 5.443621,11.01832 1.753867,15.78475 -4.643178,5.99807 -13.559326,6.38711 -19.292476,1.75387 -6.9436122,-5.61147 -7.3339946,-16.10355 -1.75387,-22.8002 6.575984,-7.89177 18.64978,-8.28302 26.307922,-1.75387 8.841629,7.53816 9.23347,21.19735 1.753873,29.81564 -8.498793,9.79266 -23.74586,10.18492 -33.3233684,1.75388 -10.7445175,-9.45836 -11.1370865,-26.29506 -1.7538751,-36.83109 10.4171435,-11.697 28.8447685,-12.0898 40.3388145,-1.75388" />
  <path
     sodipodi:type="spiral"
     style="fill:none;fill-rule:evenodd;stroke:#000000;stroke-width:0.75"
     id="path24-11"
     sodipodi:cx="922.76404"
     sodipodi:cy="746.74109"
     sodipodi:expansion="1"
     sodipodi:revolution="3"
     sodipodi:radius="29.764017"
     sodipodi:argument="-19.634954"
     sodipodi:t0="0"
     d="m 922.76404,746.74109 c 1.05523,-1.05523 1.94304,0.90181 1.75386,1.75386 -0.51267,2.30899 -3.4702,2.68018 -5.26158,1.75386 -3.20437,-1.65696 -3.57977,-5.95972 -1.75387,-8.7693 2.67958,-4.12318 8.48303,-4.50602 12.27703,-1.75387 5.05681,3.66818 5.44362,11.01832 1.75387,15.78475 -4.64318,5.99807 -13.55933,6.38711 -19.29248,1.75387 -6.94361,-5.61147 -7.33399,-16.10355 -1.75387,-22.8002 6.57599,-7.89177 18.64978,-8.28302 26.30793,-1.75387 8.84162,7.53816 9.23346,21.19735 1.75387,29.81565 -8.4988,9.79265 -23.74586,10.18491 -33.32337,1.75387 -10.74452,-9.45835 -11.13709,-26.29506 -1.75388,-36.83109 10.41715,-11.697 28.84477,-12.0898 40.33882,-1.75388" />
</svg>
